<svg width="20" height="20" viewBox="0 0 20 20" fill="none" xmlns="http://www.w3.org/2000/svg">
<path d="M7.57153 5.73493C8.32244 6.48584 8.32244 7.70331 7.57153 8.45422C6.82062 9.20513 5.60315 9.20513 4.85224 8.45422C4.10134 7.70331 4.10134 6.48584 4.85224 5.73493C5.60315 4.98403 6.82062 4.98403 7.57153 5.73493" stroke="#F8315B" stroke-width="1.15369" stroke-linecap="round" stroke-linejoin="round"/>
<path d="M15.4979 7.09465H8.1709" stroke="#F8315B" stroke-width="1.15369" stroke-linecap="round" stroke-linejoin="round"/>
<path d="M14.9241 11.5457C15.675 12.2966 15.675 13.5141 14.9241 14.265C14.1732 15.0159 12.9557 15.0159 12.2048 14.265C11.4539 13.5141 11.4539 12.2966 12.2048 11.5457C12.9557 10.7948 14.1732 10.7948 14.9241 11.5457" stroke="#F8315B" stroke-width="1.15369" stroke-linecap="round" stroke-linejoin="round"/>
<path d="M4.32959 12.9098L11.622 12.9098" stroke="#F8315B" stroke-width="1.15369" stroke-linecap="round" stroke-linejoin="round"/>
</svg>
