<svg width="26" height="26" viewBox="0 0 26 26" fill="none" xmlns="http://www.w3.org/2000/svg">
<path d="M12.7587 2.30785C13.7987 2.30785 14.8087 2.67785 15.6187 3.34785L22.2587 8.83785C23.1087 9.53785 23.5887 10.5979 23.5887 11.7379V20.2979C23.5887 22.3179 22.0487 23.9579 20.1587 23.9579H17.6987C17.1687 23.9579 16.7287 23.5279 16.7287 22.9879V18.9779C16.7287 16.6579 14.9487 14.7779 12.7587 14.7779C10.5687 14.7779 8.78871 16.6579 8.78871 18.9779V22.9879C8.78871 23.5179 8.35871 23.9579 7.82871 23.9579H5.35871C3.46871 23.9579 1.92871 22.3179 1.92871 20.2979V11.7379C1.92871 10.5979 2.41871 9.53785 3.25871 8.83785L9.90871 3.33785C10.7087 2.66785 11.7187 2.29785 12.7587 2.29785M12.7587 0.797852C11.4087 0.797852 10.0487 1.25785 8.94871 2.18785L2.30871 7.68785C1.10871 8.67785 0.428711 10.1779 0.428711 11.7379V20.2979C0.428711 23.0779 2.56871 25.4579 5.35871 25.4579H7.82871C9.18871 25.4579 10.2887 24.3579 10.2887 22.9879V18.9779C10.2887 17.4179 11.4587 16.2779 12.7587 16.2779C14.0587 16.2779 15.2287 17.4179 15.2287 18.9779V22.9879C15.2287 24.3479 16.3287 25.4579 17.6987 25.4579H20.1587C22.9487 25.4579 25.0887 23.0779 25.0887 20.2979V11.7379C25.0887 10.1779 24.4087 8.67785 23.2087 7.68785L16.5687 2.19785C15.4687 1.27785 14.1087 0.807852 12.7587 0.807852V0.797852Z" fill="#858995"/>
</svg>
