<svg width="21" height="25" viewBox="0 0 21 25" fill="none" xmlns="http://www.w3.org/2000/svg">
<path d="M10.3718 10.3279C7.54183 10.3279 5.24182 8.02786 5.24182 5.19786C5.24182 2.36786 7.53183 0.0578613 10.3718 0.0578613C13.2118 0.0578613 15.5018 2.35786 15.5018 5.18786C15.5018 8.01786 13.2018 10.3179 10.3718 10.3179V10.3279ZM10.3718 1.55786C8.37183 1.55786 6.74182 3.18786 6.74182 5.18786C6.74182 7.18786 8.37183 8.81786 10.3718 8.81786C12.3718 8.81786 14.0018 7.18786 14.0018 5.18786C14.0018 3.18786 12.3718 1.55786 10.3718 1.55786Z" fill="#858995"/>
<path d="M10.3737 24.1879C7.7237 24.1879 5.09369 23.7779 2.55369 22.9879C1.68369 22.7079 0.973701 22.0779 0.593701 21.2579C0.223701 20.4479 0.223707 19.5179 0.583707 18.7079C2.30371 14.8279 6.1437 12.3279 10.3737 12.3279C14.6037 12.3279 18.4437 14.8279 20.1637 18.7079C20.5237 19.5179 20.5137 20.4479 20.1537 21.2479C19.7837 22.0779 19.0637 22.7079 18.1937 22.9879C15.6537 23.7879 13.0237 24.1979 10.3737 24.1979V24.1879ZM10.3737 13.8279C6.7337 13.8279 3.4337 15.9779 1.9537 19.3179C1.7637 19.7379 1.7637 20.2079 1.9537 20.6379C2.1537 21.0779 2.5337 21.4179 2.9937 21.5579C7.7837 23.0679 12.9437 23.0679 17.7237 21.5579C18.1837 21.4079 18.5637 21.0779 18.7637 20.6379C18.9537 20.2079 18.9637 19.7479 18.7637 19.3179C17.2837 15.9879 13.9837 13.8279 10.3437 13.8279H10.3737Z" fill="#858995"/>
</svg>
